# xmcd
#
# Track frame offsets:
#	150
#	8073
#	21950
#	43206
#	54077
#	64890
#	78069
#	93772
#	108000
#	120530
#	134356
#	152384
#	167334
#	182008
#	196065
#	208985
#	223339
#
# Disc length: 3208 seconds
#
# Revision: 0
# Processed by: cddbd v1.5.2PL0 Copyright (c) Steve Scherf et al.
# Submitted via: SynApp - FreeCDDB Version: 2.4
#
DISCID=d50c8611
DTITLE=Glenn Miller - The Swinging Big Band [CD 2)
DYEAR=1970
DGENRE=Swing
TTITLE0=Under A Blanket Of Blue
TTITLE1=Walking By The River
TTITLE2=I Dream I Dwelt In Harlem
TTITLE3=Mister Meadowlark
TTITLE4=April In Paris
TTITLE5=Farewell Blues
TTITLE6=Chattanogga Choo Choo
TTITLE7=It's Always You
TTITLE8=Moonligth Mood
TTITLE9=That Old Black Magic
TTITLE10=Serenade In Blue
TTITLE11=Pennsylvenia 6-5000
TTITLE12=Monnligth Cocktail
TTITLE13=Blue Rain
TTITLE14=Blueberry Hill
TTITLE15=I Guess I'll Have To Dream The Rest
TTITLE16=Perfidia
EXTD=
EXTT0=
EXTT1=
EXTT2=
EXTT3=
EXTT4=
EXTT5=
EXTT6=
EXTT7=
EXTT8=
EXTT9=
EXTT10=
EXTT11=
EXTT12=
EXTT13=
EXTT14=
EXTT15=
EXTT16=
PLAYORDER=
